<svg width="250" height="90" viewBox="0 0 250 90" fill="none" xmlns="http://www.w3.org/2000/svg">
<rect width="250" height="90" fill="#728A81"/>
<path d="M76.5824 59V32.8182H81.3253V55.0241H92.8565V59H76.5824ZM119.348 45.9091C119.348 48.7301 118.82 51.1463 117.763 53.1577C116.715 55.1605 115.283 56.6946 113.468 57.7599C111.661 58.8253 109.611 59.358 107.319 59.358C105.026 59.358 102.972 58.8253 101.157 57.7599C99.3498 56.6861 97.918 55.1477 96.8612 53.1449C95.8129 51.1335 95.2887 48.7216 95.2887 45.9091C95.2887 43.0881 95.8129 40.6761 96.8612 38.6733C97.918 36.6619 99.3498 35.1236 101.157 34.0582C102.972 32.9929 105.026 32.4602 107.319 32.4602C109.611 32.4602 111.661 32.9929 113.468 34.0582C115.283 35.1236 116.715 36.6619 117.763 38.6733C118.82 40.6761 119.348 43.0881 119.348 45.9091ZM114.58 45.9091C114.58 43.9233 114.269 42.2486 113.647 40.8849C113.033 39.5128 112.181 38.4773 111.09 37.7784C109.999 37.071 108.742 36.7173 107.319 36.7173C105.895 36.7173 104.638 37.071 103.547 37.7784C102.456 38.4773 101.6 39.5128 100.978 40.8849C100.364 42.2486 100.057 43.9233 100.057 45.9091C100.057 47.8949 100.364 49.5739 100.978 50.946C101.6 52.3097 102.456 53.3452 103.547 54.0526C104.638 54.7514 105.895 55.1009 107.319 55.1009C108.742 55.1009 109.999 54.7514 111.09 54.0526C112.181 53.3452 113.033 52.3097 113.647 50.946C114.269 49.5739 114.58 47.8949 114.58 45.9091ZM141.372 41.179C141.159 40.4886 140.865 39.8707 140.49 39.3253C140.124 38.7713 139.68 38.2983 139.161 37.9062C138.649 37.5142 138.061 37.2202 137.396 37.0241C136.732 36.8196 136.007 36.7173 135.223 36.7173C133.817 36.7173 132.564 37.071 131.464 37.7784C130.365 38.4858 129.5 39.5256 128.869 40.8977C128.247 42.2614 127.936 43.9233 127.936 45.8835C127.936 47.8608 128.247 49.5355 128.869 50.9077C129.491 52.2798 130.357 53.3239 131.464 54.0398C132.572 54.7472 133.859 55.1009 135.325 55.1009C136.655 55.1009 137.805 54.8452 138.777 54.3338C139.757 53.8224 140.511 53.098 141.04 52.1605C141.568 51.2145 141.832 50.1065 141.832 48.8366L142.906 49.0028H135.798V45.2955H146.422V48.4403C146.422 50.6818 145.945 52.6207 144.99 54.2571C144.036 55.8935 142.723 57.1548 141.053 58.0412C139.382 58.919 137.464 59.358 135.3 59.358C132.888 59.358 130.77 58.8168 128.946 57.7344C127.131 56.6435 125.712 55.0966 124.689 53.0938C123.675 51.0824 123.168 48.696 123.168 45.9347C123.168 43.821 123.466 41.9332 124.062 40.2713C124.668 38.6094 125.511 37.1989 126.594 36.0398C127.676 34.8722 128.946 33.9858 130.403 33.3807C131.861 32.767 133.446 32.4602 135.159 32.4602C136.608 32.4602 137.959 32.6733 139.212 33.0994C140.464 33.517 141.577 34.1136 142.548 34.8892C143.528 35.6648 144.334 36.5852 144.964 37.6506C145.595 38.7159 146.009 39.892 146.205 41.179H141.372ZM174.403 45.9091C174.403 48.7301 173.875 51.1463 172.818 53.1577C171.77 55.1605 170.338 56.6946 168.522 57.7599C166.716 58.8253 164.666 59.358 162.373 59.358C160.081 59.358 158.027 58.8253 156.211 57.7599C154.404 56.6861 152.973 55.1477 151.916 53.1449C150.868 51.1335 150.343 48.7216 150.343 45.9091C150.343 43.0881 150.868 40.6761 151.916 38.6733C152.973 36.6619 154.404 35.1236 156.211 34.0582C158.027 32.9929 160.081 32.4602 162.373 32.4602C164.666 32.4602 166.716 32.9929 168.522 34.0582C170.338 35.1236 171.77 36.6619 172.818 38.6733C173.875 40.6761 174.403 43.0881 174.403 45.9091ZM169.635 45.9091C169.635 43.9233 169.324 42.2486 168.701 40.8849C168.088 39.5128 167.235 38.4773 166.145 37.7784C165.054 37.071 163.797 36.7173 162.373 36.7173C160.95 36.7173 159.693 37.071 158.602 37.7784C157.511 38.4773 156.654 39.5128 156.032 40.8849C155.419 42.2486 155.112 43.9233 155.112 45.9091C155.112 47.8949 155.419 49.5739 156.032 50.946C156.654 52.3097 157.511 53.3452 158.602 54.0526C159.693 54.7514 160.95 55.1009 162.373 55.1009C163.797 55.1009 165.054 54.7514 166.145 54.0526C167.235 53.3452 168.088 52.3097 168.701 50.946C169.324 49.5739 169.635 47.8949 169.635 45.9091Z" fill="white"/>
</svg>
